<mxfile host="65bd71144e">
    <diagram id="kDcoZKEgJLk8fLeYNA--" name="Page-1">
        <mxGraphModel dx="2308" dy="2124" grid="1" gridSize="10" guides="1" tooltips="1" connect="1" arrows="1" fold="1" page="1" pageScale="1" pageWidth="1169" pageHeight="1654" math="0" shadow="0">
            <root>
                <mxCell id="0"/>
                <mxCell id="1" parent="0"/>
                <mxCell id="sZ0HXl8LnSBLZn5xtde6-16" style="edgeStyle=orthogonalEdgeStyle;rounded=0;orthogonalLoop=1;jettySize=auto;html=1;exitX=0.5;exitY=1;exitDx=0;exitDy=0;entryX=0.5;entryY=0;entryDx=0;entryDy=0;" parent="1" source="sZ0HXl8LnSBLZn5xtde6-1" target="sZ0HXl8LnSBLZn5xtde6-7" edge="1">
                    <mxGeometry relative="1" as="geometry"/>
                </mxCell>
                <mxCell id="sZ0HXl8LnSBLZn5xtde6-18" style="edgeStyle=orthogonalEdgeStyle;rounded=0;orthogonalLoop=1;jettySize=auto;html=1;exitX=0.5;exitY=1;exitDx=0;exitDy=0;entryX=0.5;entryY=0;entryDx=0;entryDy=0;" parent="1" source="sZ0HXl8LnSBLZn5xtde6-1" target="sZ0HXl8LnSBLZn5xtde6-2" edge="1">
                    <mxGeometry relative="1" as="geometry">
                        <Array as="points">
                            <mxPoint x="515" y="70"/>
                            <mxPoint x="80" y="70"/>
                        </Array>
                    </mxGeometry>
                </mxCell>
                <mxCell id="sZ0HXl8LnSBLZn5xtde6-19" style="edgeStyle=orthogonalEdgeStyle;rounded=0;orthogonalLoop=1;jettySize=auto;html=1;exitX=0.5;exitY=1;exitDx=0;exitDy=0;entryX=0.5;entryY=0;entryDx=0;entryDy=0;" parent="1" source="sZ0HXl8LnSBLZn5xtde6-1" target="sZ0HXl8LnSBLZn5xtde6-8" edge="1">
                    <mxGeometry relative="1" as="geometry"/>
                </mxCell>
                <mxCell id="sZ0HXl8LnSBLZn5xtde6-30" style="edgeStyle=orthogonalEdgeStyle;rounded=0;orthogonalLoop=1;jettySize=auto;html=1;exitX=0.5;exitY=1;exitDx=0;exitDy=0;entryX=0.5;entryY=0;entryDx=0;entryDy=0;" parent="1" source="sZ0HXl8LnSBLZn5xtde6-1" target="sZ0HXl8LnSBLZn5xtde6-56" edge="1">
                    <mxGeometry relative="1" as="geometry">
                        <mxPoint x="387.5" y="92.5" as="targetPoint"/>
                    </mxGeometry>
                </mxCell>
                <mxCell id="sZ0HXl8LnSBLZn5xtde6-88" style="edgeStyle=orthogonalEdgeStyle;rounded=0;orthogonalLoop=1;jettySize=auto;html=1;exitX=0.5;exitY=1;exitDx=0;exitDy=0;entryX=0.5;entryY=1;entryDx=0;entryDy=0;" parent="1" source="sZ0HXl8LnSBLZn5xtde6-1" target="sZ0HXl8LnSBLZn5xtde6-87" edge="1">
                    <mxGeometry relative="1" as="geometry"/>
                </mxCell>
                <mxCell id="Dqku1uwKSIW6bDZqs-QQ-74" style="edgeStyle=orthogonalEdgeStyle;rounded=0;orthogonalLoop=1;jettySize=auto;html=1;exitX=0.5;exitY=1;exitDx=0;exitDy=0;entryX=0.5;entryY=1;entryDx=0;entryDy=0;" parent="1" source="sZ0HXl8LnSBLZn5xtde6-1" target="sZ0HXl8LnSBLZn5xtde6-10" edge="1">
                    <mxGeometry relative="1" as="geometry"/>
                </mxCell>
                <mxCell id="Dqku1uwKSIW6bDZqs-QQ-75" style="edgeStyle=orthogonalEdgeStyle;rounded=0;orthogonalLoop=1;jettySize=auto;html=1;exitX=0.5;exitY=1;exitDx=0;exitDy=0;entryX=0.5;entryY=1;entryDx=0;entryDy=0;" parent="1" source="sZ0HXl8LnSBLZn5xtde6-1" target="sZ0HXl8LnSBLZn5xtde6-9" edge="1">
                    <mxGeometry relative="1" as="geometry"/>
                </mxCell>
                <mxCell id="sZ0HXl8LnSBLZn5xtde6-1" value="Меню" style="rounded=0;whiteSpace=wrap;html=1;" parent="1" vertex="1">
                    <mxGeometry x="470" y="20" width="90" height="30" as="geometry"/>
                </mxCell>
                <mxCell id="sZ0HXl8LnSBLZn5xtde6-35" style="edgeStyle=orthogonalEdgeStyle;rounded=0;orthogonalLoop=1;jettySize=auto;html=1;exitX=0.5;exitY=1;exitDx=0;exitDy=0;entryX=0.5;entryY=0;entryDx=0;entryDy=0;" parent="1" source="sZ0HXl8LnSBLZn5xtde6-2" target="sZ0HXl8LnSBLZn5xtde6-6" edge="1">
                    <mxGeometry relative="1" as="geometry"/>
                </mxCell>
                <mxCell id="sZ0HXl8LnSBLZn5xtde6-2" value="Пациенты" style="rounded=0;whiteSpace=wrap;html=1;" parent="1" vertex="1">
                    <mxGeometry x="30" y="100" width="100" height="30" as="geometry"/>
                </mxCell>
                <mxCell id="sZ0HXl8LnSBLZn5xtde6-23" style="edgeStyle=orthogonalEdgeStyle;rounded=0;orthogonalLoop=1;jettySize=auto;html=1;exitX=0.5;exitY=1;exitDx=0;exitDy=0;entryX=0.5;entryY=1;entryDx=0;entryDy=0;" parent="1" source="sZ0HXl8LnSBLZn5xtde6-3" target="sZ0HXl8LnSBLZn5xtde6-3" edge="1">
                    <mxGeometry relative="1" as="geometry"/>
                </mxCell>
                <mxCell id="sZ0HXl8LnSBLZn5xtde6-24" style="edgeStyle=orthogonalEdgeStyle;rounded=0;orthogonalLoop=1;jettySize=auto;html=1;exitX=0;exitY=0.5;exitDx=0;exitDy=0;entryX=1;entryY=0.5;entryDx=0;entryDy=0;" parent="1" source="sZ0HXl8LnSBLZn5xtde6-3" target="sZ0HXl8LnSBLZn5xtde6-11" edge="1">
                    <mxGeometry relative="1" as="geometry">
                        <Array as="points">
                            <mxPoint x="10" y="280"/>
                            <mxPoint x="10" y="244"/>
                        </Array>
                    </mxGeometry>
                </mxCell>
                <mxCell id="sZ0HXl8LnSBLZn5xtde6-37" style="edgeStyle=orthogonalEdgeStyle;rounded=0;orthogonalLoop=1;jettySize=auto;html=1;exitX=0.5;exitY=1;exitDx=0;exitDy=0;entryX=0.5;entryY=0;entryDx=0;entryDy=0;" parent="1" source="sZ0HXl8LnSBLZn5xtde6-3" target="sZ0HXl8LnSBLZn5xtde6-4" edge="1">
                    <mxGeometry relative="1" as="geometry"/>
                </mxCell>
                <mxCell id="sZ0HXl8LnSBLZn5xtde6-3" value="архив пациентов" style="rounded=0;whiteSpace=wrap;html=1;" parent="1" vertex="1">
                    <mxGeometry x="20" y="250" width="120" height="60" as="geometry"/>
                </mxCell>
                <mxCell id="sZ0HXl8LnSBLZn5xtde6-80" style="edgeStyle=orthogonalEdgeStyle;rounded=0;orthogonalLoop=1;jettySize=auto;html=1;exitX=0;exitY=0.5;exitDx=0;exitDy=0;entryX=1;entryY=0.5;entryDx=0;entryDy=0;" parent="1" source="sZ0HXl8LnSBLZn5xtde6-4" target="sZ0HXl8LnSBLZn5xtde6-79" edge="1">
                    <mxGeometry relative="1" as="geometry"/>
                </mxCell>
                <mxCell id="sZ0HXl8LnSBLZn5xtde6-4" value="поиск в архиве по ФИО" style="rounded=0;whiteSpace=wrap;html=1;" parent="1" vertex="1">
                    <mxGeometry x="30" y="360" width="100" height="60" as="geometry"/>
                </mxCell>
                <mxCell id="sZ0HXl8LnSBLZn5xtde6-36" style="edgeStyle=orthogonalEdgeStyle;rounded=0;orthogonalLoop=1;jettySize=auto;html=1;exitX=0.5;exitY=1;exitDx=0;exitDy=0;entryX=0.5;entryY=0;entryDx=0;entryDy=0;" parent="1" source="sZ0HXl8LnSBLZn5xtde6-6" target="sZ0HXl8LnSBLZn5xtde6-3" edge="1">
                    <mxGeometry relative="1" as="geometry"/>
                </mxCell>
                <mxCell id="Dqku1uwKSIW6bDZqs-QQ-55" style="edgeStyle=orthogonalEdgeStyle;rounded=0;orthogonalLoop=1;jettySize=auto;html=1;exitX=1;exitY=0.5;exitDx=0;exitDy=0;" parent="1" source="sZ0HXl8LnSBLZn5xtde6-6" edge="1">
                    <mxGeometry relative="1" as="geometry">
                        <mxPoint x="160" y="160" as="targetPoint"/>
                        <Array as="points">
                            <mxPoint x="140" y="180"/>
                            <mxPoint x="140" y="160"/>
                        </Array>
                    </mxGeometry>
                </mxCell>
                <mxCell id="sZ0HXl8LnSBLZn5xtde6-6" value="текущие карты пациентов" style="rounded=0;whiteSpace=wrap;html=1;" parent="1" vertex="1">
                    <mxGeometry x="30" y="157.5" width="100" height="45" as="geometry"/>
                </mxCell>
                <mxCell id="sZ0HXl8LnSBLZn5xtde6-73" style="edgeStyle=orthogonalEdgeStyle;rounded=0;orthogonalLoop=1;jettySize=auto;html=1;exitX=0.5;exitY=1;exitDx=0;exitDy=0;entryX=0.5;entryY=0;entryDx=0;entryDy=0;" parent="1" source="sZ0HXl8LnSBLZn5xtde6-7" target="sZ0HXl8LnSBLZn5xtde6-60" edge="1">
                    <mxGeometry relative="1" as="geometry"/>
                </mxCell>
                <mxCell id="sZ0HXl8LnSBLZn5xtde6-7" value="создать карту нового пациента" style="rounded=0;whiteSpace=wrap;html=1;" parent="1" vertex="1">
                    <mxGeometry x="600" y="93.75" width="110" height="45" as="geometry"/>
                </mxCell>
                <mxCell id="Dqku1uwKSIW6bDZqs-QQ-71" style="edgeStyle=orthogonalEdgeStyle;rounded=0;orthogonalLoop=1;jettySize=auto;html=1;exitX=0.5;exitY=1;exitDx=0;exitDy=0;entryX=0.5;entryY=0;entryDx=0;entryDy=0;" parent="1" source="sZ0HXl8LnSBLZn5xtde6-8" target="Dqku1uwKSIW6bDZqs-QQ-59" edge="1">
                    <mxGeometry relative="1" as="geometry"/>
                </mxCell>
                <mxCell id="sZ0HXl8LnSBLZn5xtde6-8" value="?? журнал ведения пациентов" style="rounded=0;whiteSpace=wrap;html=1;" parent="1" vertex="1">
                    <mxGeometry x="1625" y="92.5" width="120" height="45" as="geometry"/>
                </mxCell>
                <mxCell id="sZ0HXl8LnSBLZn5xtde6-9" value="БД Анализы с расшифровкой" style="shape=hexagon;perimeter=hexagonPerimeter2;whiteSpace=wrap;html=1;fixedSize=1;" parent="1" vertex="1">
                    <mxGeometry x="1741" y="-5" width="130" height="55" as="geometry"/>
                </mxCell>
                <mxCell id="sZ0HXl8LnSBLZn5xtde6-10" value="БД Витамины&amp;nbsp;" style="shape=hexagon;perimeter=hexagonPerimeter2;whiteSpace=wrap;html=1;fixedSize=1;" parent="1" vertex="1">
                    <mxGeometry x="1590" y="-1.25" width="120" height="45" as="geometry"/>
                </mxCell>
                <mxCell id="sZ0HXl8LnSBLZn5xtde6-11" value="Вывод: &lt;br&gt;ФИО, &lt;br&gt;дата рождения, &lt;br&gt;краткий анамнез, &lt;br&gt;цели, &lt;br&gt;дата начала терапии, дата окончания терапии, &lt;br&gt;результат" style="rounded=1;whiteSpace=wrap;html=1;" parent="1" vertex="1">
                    <mxGeometry x="-160" y="168.75" width="150" height="150" as="geometry"/>
                </mxCell>
                <mxCell id="sZ0HXl8LnSBLZn5xtde6-12" value="открыть карту пациента" style="rounded=1;whiteSpace=wrap;html=1;" parent="1" vertex="1">
                    <mxGeometry x="-330" y="332.5" width="115" height="40" as="geometry"/>
                </mxCell>
                <mxCell id="sZ0HXl8LnSBLZn5xtde6-13" value="вернуть карту пациента в текущие" style="rounded=1;whiteSpace=wrap;html=1;" parent="1" vertex="1">
                    <mxGeometry x="-340" y="432.5" width="125" height="40" as="geometry"/>
                </mxCell>
                <mxCell id="sZ0HXl8LnSBLZn5xtde6-14" value="редактировать карту пациента" style="rounded=1;whiteSpace=wrap;html=1;" parent="1" vertex="1">
                    <mxGeometry x="-335" y="380" width="120" height="40" as="geometry"/>
                </mxCell>
                <mxCell id="sZ0HXl8LnSBLZn5xtde6-15" value="Вывод: &lt;br&gt;ФИО, &lt;br&gt;дата рождения, краткий анамнез, цели, &lt;br&gt;дата начала терапии, рекомендации, дообследования,&amp;nbsp; текущие назначения" style="rounded=1;whiteSpace=wrap;html=1;" parent="1" vertex="1">
                    <mxGeometry x="160" y="85" width="130" height="160" as="geometry"/>
                </mxCell>
                <mxCell id="Dqku1uwKSIW6bDZqs-QQ-57" style="edgeStyle=orthogonalEdgeStyle;rounded=0;orthogonalLoop=1;jettySize=auto;html=1;exitX=0.5;exitY=1;exitDx=0;exitDy=0;" parent="1" source="sZ0HXl8LnSBLZn5xtde6-38" edge="1">
                    <mxGeometry relative="1" as="geometry">
                        <mxPoint x="385" y="210" as="targetPoint"/>
                    </mxGeometry>
                </mxCell>
                <mxCell id="sZ0HXl8LnSBLZn5xtde6-38" value="изменить регистрационные данные" style="rounded=1;whiteSpace=wrap;html=1;" parent="1" vertex="1">
                    <mxGeometry x="327.5" y="157.5" width="115" height="42.5" as="geometry"/>
                </mxCell>
                <mxCell id="sZ0HXl8LnSBLZn5xtde6-48" style="edgeStyle=orthogonalEdgeStyle;rounded=0;orthogonalLoop=1;jettySize=auto;html=1;exitX=0.5;exitY=1;exitDx=0;exitDy=0;entryX=0.5;entryY=0;entryDx=0;entryDy=0;" parent="1" source="sZ0HXl8LnSBLZn5xtde6-39" target="sZ0HXl8LnSBLZn5xtde6-42" edge="1">
                    <mxGeometry relative="1" as="geometry"/>
                </mxCell>
                <mxCell id="sZ0HXl8LnSBLZn5xtde6-39" value="изменить антропометрические данные и состав тела" style="rounded=1;whiteSpace=wrap;html=1;" parent="1" vertex="1">
                    <mxGeometry x="316.25" y="245" width="137.5" height="60" as="geometry"/>
                </mxCell>
                <mxCell id="sZ0HXl8LnSBLZn5xtde6-51" style="edgeStyle=orthogonalEdgeStyle;rounded=0;orthogonalLoop=1;jettySize=auto;html=1;exitX=0.5;exitY=1;exitDx=0;exitDy=0;entryX=0.5;entryY=0;entryDx=0;entryDy=0;" parent="1" source="sZ0HXl8LnSBLZn5xtde6-40" target="sZ0HXl8LnSBLZn5xtde6-41" edge="1">
                    <mxGeometry relative="1" as="geometry"/>
                </mxCell>
                <mxCell id="sZ0HXl8LnSBLZn5xtde6-40" value="изменить данные об анализах и других исследованиях" style="rounded=1;whiteSpace=wrap;html=1;" parent="1" vertex="1">
                    <mxGeometry x="321.88" y="510" width="121.25" height="60" as="geometry"/>
                </mxCell>
                <mxCell id="sZ0HXl8LnSBLZn5xtde6-54" style="edgeStyle=orthogonalEdgeStyle;rounded=0;orthogonalLoop=1;jettySize=auto;html=1;exitX=0.5;exitY=1;exitDx=0;exitDy=0;entryX=0.5;entryY=0;entryDx=0;entryDy=0;" parent="1" source="sZ0HXl8LnSBLZn5xtde6-41" target="sZ0HXl8LnSBLZn5xtde6-52" edge="1">
                    <mxGeometry relative="1" as="geometry"/>
                </mxCell>
                <mxCell id="sZ0HXl8LnSBLZn5xtde6-41" value="изменить дополнения и цели" style="rounded=1;whiteSpace=wrap;html=1;" parent="1" vertex="1">
                    <mxGeometry x="326.88" y="600" width="110.62" height="50" as="geometry"/>
                </mxCell>
                <mxCell id="sZ0HXl8LnSBLZn5xtde6-49" style="edgeStyle=orthogonalEdgeStyle;rounded=0;orthogonalLoop=1;jettySize=auto;html=1;exitX=0.5;exitY=1;exitDx=0;exitDy=0;entryX=0.5;entryY=0;entryDx=0;entryDy=0;" parent="1" source="sZ0HXl8LnSBLZn5xtde6-42" target="sZ0HXl8LnSBLZn5xtde6-45" edge="1">
                    <mxGeometry relative="1" as="geometry"/>
                </mxCell>
                <mxCell id="sZ0HXl8LnSBLZn5xtde6-42" value="изменить медицинскую историю и данные о наследственных заболеваниях&amp;nbsp;" style="rounded=1;whiteSpace=wrap;html=1;" parent="1" vertex="1">
                    <mxGeometry x="309.38" y="320" width="145.62" height="80" as="geometry"/>
                </mxCell>
                <mxCell id="sZ0HXl8LnSBLZn5xtde6-43" value="импортировать карту пациента" style="rounded=1;whiteSpace=wrap;html=1;" parent="1" vertex="1">
                    <mxGeometry x="-332.5" y="492.5" width="117.5" height="40" as="geometry"/>
                </mxCell>
                <mxCell id="sZ0HXl8LnSBLZn5xtde6-50" style="edgeStyle=orthogonalEdgeStyle;rounded=0;orthogonalLoop=1;jettySize=auto;html=1;exitX=0.5;exitY=1;exitDx=0;exitDy=0;entryX=0.5;entryY=0;entryDx=0;entryDy=0;" parent="1" source="sZ0HXl8LnSBLZn5xtde6-45" target="sZ0HXl8LnSBLZn5xtde6-40" edge="1">
                    <mxGeometry relative="1" as="geometry"/>
                </mxCell>
                <mxCell id="sZ0HXl8LnSBLZn5xtde6-45" value="изменить данные о стиле жизни и физической нагрузке" style="rounded=1;whiteSpace=wrap;html=1;" parent="1" vertex="1">
                    <mxGeometry x="320" y="420" width="125" height="60" as="geometry"/>
                </mxCell>
                <mxCell id="sZ0HXl8LnSBLZn5xtde6-75" style="edgeStyle=orthogonalEdgeStyle;rounded=0;orthogonalLoop=1;jettySize=auto;html=1;exitX=0.5;exitY=1;exitDx=0;exitDy=0;entryX=0.5;entryY=0;entryDx=0;entryDy=0;" parent="1" source="sZ0HXl8LnSBLZn5xtde6-52" target="sZ0HXl8LnSBLZn5xtde6-74" edge="1">
                    <mxGeometry relative="1" as="geometry"/>
                </mxCell>
                <mxCell id="Dqku1uwKSIW6bDZqs-QQ-62" style="edgeStyle=orthogonalEdgeStyle;rounded=0;orthogonalLoop=1;jettySize=auto;html=1;exitX=0;exitY=0.5;exitDx=0;exitDy=0;entryX=0.998;entryY=0.064;entryDx=0;entryDy=0;entryPerimeter=0;" parent="1" source="sZ0HXl8LnSBLZn5xtde6-52" target="Dqku1uwKSIW6bDZqs-QQ-60" edge="1">
                    <mxGeometry relative="1" as="geometry"/>
                </mxCell>
                <mxCell id="sZ0HXl8LnSBLZn5xtde6-52" value="изменить рекомендации, дообследования и&amp;nbsp; текущие назначения" style="rounded=1;whiteSpace=wrap;html=1;" parent="1" vertex="1">
                    <mxGeometry x="323.13" y="680" width="126.87" height="60" as="geometry"/>
                </mxCell>
                <mxCell id="Dqku1uwKSIW6bDZqs-QQ-83" style="edgeStyle=orthogonalEdgeStyle;rounded=0;orthogonalLoop=1;jettySize=auto;html=1;exitX=0.5;exitY=1;exitDx=0;exitDy=0;entryX=0.5;entryY=0;entryDx=0;entryDy=0;" parent="1" source="sZ0HXl8LnSBLZn5xtde6-53" target="Dqku1uwKSIW6bDZqs-QQ-82" edge="1">
                    <mxGeometry relative="1" as="geometry"/>
                </mxCell>
                <mxCell id="sZ0HXl8LnSBLZn5xtde6-53" value="изменить конечный результат" style="rounded=1;whiteSpace=wrap;html=1;" parent="1" vertex="1">
                    <mxGeometry x="321.57" y="860" width="120" height="53" as="geometry"/>
                </mxCell>
                <mxCell id="sZ0HXl8LnSBLZn5xtde6-58" style="edgeStyle=orthogonalEdgeStyle;rounded=0;orthogonalLoop=1;jettySize=auto;html=1;exitX=0.5;exitY=1;exitDx=0;exitDy=0;entryX=0.5;entryY=0;entryDx=0;entryDy=0;" parent="1" source="sZ0HXl8LnSBLZn5xtde6-56" target="sZ0HXl8LnSBLZn5xtde6-38" edge="1">
                    <mxGeometry relative="1" as="geometry"/>
                </mxCell>
                <mxCell id="sZ0HXl8LnSBLZn5xtde6-56" value="редактировать карту пациента (список ФИО с ссылкой на карту)" style="rounded=0;whiteSpace=wrap;html=1;" parent="1" vertex="1">
                    <mxGeometry x="310.63" y="92.5" width="159.37" height="47.5" as="geometry"/>
                </mxCell>
                <mxCell id="Dqku1uwKSIW6bDZqs-QQ-6" style="edgeStyle=orthogonalEdgeStyle;rounded=0;orthogonalLoop=1;jettySize=auto;html=1;exitX=1;exitY=0.5;exitDx=0;exitDy=0;entryX=0.004;entryY=0.075;entryDx=0;entryDy=0;entryPerimeter=0;" parent="1" source="sZ0HXl8LnSBLZn5xtde6-60" target="Dqku1uwKSIW6bDZqs-QQ-2" edge="1">
                    <mxGeometry relative="1" as="geometry">
                        <mxPoint x="740" y="179" as="targetPoint"/>
                    </mxGeometry>
                </mxCell>
                <mxCell id="Dqku1uwKSIW6bDZqs-QQ-48" style="edgeStyle=orthogonalEdgeStyle;rounded=0;orthogonalLoop=1;jettySize=auto;html=1;exitX=0.5;exitY=1;exitDx=0;exitDy=0;entryX=0.5;entryY=0;entryDx=0;entryDy=0;" parent="1" source="sZ0HXl8LnSBLZn5xtde6-60" target="Dqku1uwKSIW6bDZqs-QQ-47" edge="1">
                    <mxGeometry relative="1" as="geometry"/>
                </mxCell>
                <mxCell id="sZ0HXl8LnSBLZn5xtde6-60" value="добавить регистрационные данные" style="rounded=1;whiteSpace=wrap;html=1;" parent="1" vertex="1">
                    <mxGeometry x="599.38" y="157.5" width="115" height="42.5" as="geometry"/>
                </mxCell>
                <mxCell id="sZ0HXl8LnSBLZn5xtde6-61" style="edgeStyle=orthogonalEdgeStyle;rounded=0;orthogonalLoop=1;jettySize=auto;html=1;exitX=0.5;exitY=1;exitDx=0;exitDy=0;entryX=0.5;entryY=0;entryDx=0;entryDy=0;" parent="1" source="sZ0HXl8LnSBLZn5xtde6-62" target="sZ0HXl8LnSBLZn5xtde6-68" edge="1">
                    <mxGeometry relative="1" as="geometry"/>
                </mxCell>
                <mxCell id="Dqku1uwKSIW6bDZqs-QQ-11" style="edgeStyle=orthogonalEdgeStyle;rounded=0;orthogonalLoop=1;jettySize=auto;html=1;exitX=1;exitY=0.5;exitDx=0;exitDy=0;entryX=0.003;entryY=0.076;entryDx=0;entryDy=0;entryPerimeter=0;" parent="1" source="sZ0HXl8LnSBLZn5xtde6-62" target="Dqku1uwKSIW6bDZqs-QQ-7" edge="1">
                    <mxGeometry relative="1" as="geometry">
                        <mxPoint x="1020" y="110" as="targetPoint"/>
                        <Array as="points">
                            <mxPoint x="1020" y="280"/>
                            <mxPoint x="1020" y="101"/>
                        </Array>
                    </mxGeometry>
                </mxCell>
                <mxCell id="sZ0HXl8LnSBLZn5xtde6-62" value="добавить антропометрические данные и состав тела" style="rounded=1;whiteSpace=wrap;html=1;" parent="1" vertex="1">
                    <mxGeometry x="586.56" y="250" width="137.5" height="60" as="geometry"/>
                </mxCell>
                <mxCell id="sZ0HXl8LnSBLZn5xtde6-63" style="edgeStyle=orthogonalEdgeStyle;rounded=0;orthogonalLoop=1;jettySize=auto;html=1;exitX=0.5;exitY=1;exitDx=0;exitDy=0;entryX=0.5;entryY=0;entryDx=0;entryDy=0;" parent="1" source="sZ0HXl8LnSBLZn5xtde6-64" target="sZ0HXl8LnSBLZn5xtde6-66" edge="1">
                    <mxGeometry relative="1" as="geometry"/>
                </mxCell>
                <mxCell id="Dqku1uwKSIW6bDZqs-QQ-31" style="edgeStyle=orthogonalEdgeStyle;rounded=0;orthogonalLoop=1;jettySize=auto;html=1;exitX=1;exitY=0.5;exitDx=0;exitDy=0;entryX=-0.014;entryY=0.075;entryDx=0;entryDy=0;entryPerimeter=0;" parent="1" source="sZ0HXl8LnSBLZn5xtde6-64" target="Dqku1uwKSIW6bDZqs-QQ-27" edge="1">
                    <mxGeometry relative="1" as="geometry">
                        <mxPoint x="790" y="530" as="targetPoint"/>
                        <Array as="points">
                            <mxPoint x="1170" y="553"/>
                            <mxPoint x="1170" y="729"/>
                        </Array>
                    </mxGeometry>
                </mxCell>
                <mxCell id="sZ0HXl8LnSBLZn5xtde6-64" value="добавить данные об анализах и других исследованиях" style="rounded=1;whiteSpace=wrap;html=1;" parent="1" vertex="1">
                    <mxGeometry x="594.69" y="522.5" width="121.25" height="60" as="geometry"/>
                </mxCell>
                <mxCell id="sZ0HXl8LnSBLZn5xtde6-65" style="edgeStyle=orthogonalEdgeStyle;rounded=0;orthogonalLoop=1;jettySize=auto;html=1;exitX=0.5;exitY=1;exitDx=0;exitDy=0;entryX=0.5;entryY=0;entryDx=0;entryDy=0;" parent="1" source="sZ0HXl8LnSBLZn5xtde6-66" target="sZ0HXl8LnSBLZn5xtde6-72" edge="1">
                    <mxGeometry relative="1" as="geometry"/>
                </mxCell>
                <mxCell id="Dqku1uwKSIW6bDZqs-QQ-36" style="edgeStyle=orthogonalEdgeStyle;rounded=0;orthogonalLoop=1;jettySize=auto;html=1;exitX=1;exitY=0.5;exitDx=0;exitDy=0;entryX=-0.005;entryY=0.169;entryDx=0;entryDy=0;entryPerimeter=0;" parent="1" source="sZ0HXl8LnSBLZn5xtde6-66" target="Dqku1uwKSIW6bDZqs-QQ-32" edge="1">
                    <mxGeometry relative="1" as="geometry">
                        <Array as="points">
                            <mxPoint x="1150" y="638"/>
                            <mxPoint x="1150" y="770"/>
                            <mxPoint x="1199" y="770"/>
                        </Array>
                    </mxGeometry>
                </mxCell>
                <mxCell id="sZ0HXl8LnSBLZn5xtde6-66" value="добавить дополнения и цели" style="rounded=1;whiteSpace=wrap;html=1;" parent="1" vertex="1">
                    <mxGeometry x="599.69" y="612.5" width="110.62" height="50" as="geometry"/>
                </mxCell>
                <mxCell id="sZ0HXl8LnSBLZn5xtde6-67" style="edgeStyle=orthogonalEdgeStyle;rounded=0;orthogonalLoop=1;jettySize=auto;html=1;exitX=0.5;exitY=1;exitDx=0;exitDy=0;entryX=0.5;entryY=0;entryDx=0;entryDy=0;" parent="1" source="sZ0HXl8LnSBLZn5xtde6-68" target="sZ0HXl8LnSBLZn5xtde6-70" edge="1">
                    <mxGeometry relative="1" as="geometry"/>
                </mxCell>
                <mxCell id="Dqku1uwKSIW6bDZqs-QQ-21" style="edgeStyle=orthogonalEdgeStyle;rounded=0;orthogonalLoop=1;jettySize=auto;html=1;exitX=1;exitY=0.5;exitDx=0;exitDy=0;entryX=-0.002;entryY=0.074;entryDx=0;entryDy=0;entryPerimeter=0;" parent="1" source="sZ0HXl8LnSBLZn5xtde6-68" target="Dqku1uwKSIW6bDZqs-QQ-17" edge="1">
                    <mxGeometry relative="1" as="geometry">
                        <Array as="points">
                            <mxPoint x="770" y="372"/>
                            <mxPoint x="770" y="300"/>
                            <mxPoint x="1030" y="300"/>
                            <mxPoint x="1030" y="268"/>
                        </Array>
                    </mxGeometry>
                </mxCell>
                <mxCell id="sZ0HXl8LnSBLZn5xtde6-68" value="добавить медицинскую историю и данные о наследственных заболеваниях&amp;nbsp;" style="rounded=1;whiteSpace=wrap;html=1;" parent="1" vertex="1">
                    <mxGeometry x="582.19" y="332.5" width="145.62" height="80" as="geometry"/>
                </mxCell>
                <mxCell id="sZ0HXl8LnSBLZn5xtde6-69" style="edgeStyle=orthogonalEdgeStyle;rounded=0;orthogonalLoop=1;jettySize=auto;html=1;exitX=0.5;exitY=1;exitDx=0;exitDy=0;entryX=0.5;entryY=0;entryDx=0;entryDy=0;" parent="1" source="sZ0HXl8LnSBLZn5xtde6-70" target="sZ0HXl8LnSBLZn5xtde6-64" edge="1">
                    <mxGeometry relative="1" as="geometry"/>
                </mxCell>
                <mxCell id="Dqku1uwKSIW6bDZqs-QQ-26" style="edgeStyle=orthogonalEdgeStyle;rounded=0;orthogonalLoop=1;jettySize=auto;html=1;exitX=1;exitY=0.5;exitDx=0;exitDy=0;entryX=-0.002;entryY=0.081;entryDx=0;entryDy=0;entryPerimeter=0;" parent="1" source="sZ0HXl8LnSBLZn5xtde6-70" target="Dqku1uwKSIW6bDZqs-QQ-22" edge="1">
                    <mxGeometry relative="1" as="geometry"/>
                </mxCell>
                <mxCell id="sZ0HXl8LnSBLZn5xtde6-70" value="добавить данные о стиле жизни и физической нагрузке" style="rounded=1;whiteSpace=wrap;html=1;" parent="1" vertex="1">
                    <mxGeometry x="592.81" y="432.5" width="125" height="60" as="geometry"/>
                </mxCell>
                <mxCell id="Dqku1uwKSIW6bDZqs-QQ-41" style="edgeStyle=orthogonalEdgeStyle;rounded=0;orthogonalLoop=1;jettySize=auto;html=1;exitX=1;exitY=0.5;exitDx=0;exitDy=0;entryX=-0.008;entryY=0.107;entryDx=0;entryDy=0;entryPerimeter=0;" parent="1" source="sZ0HXl8LnSBLZn5xtde6-72" target="Dqku1uwKSIW6bDZqs-QQ-37" edge="1">
                    <mxGeometry relative="1" as="geometry"/>
                </mxCell>
                <mxCell id="Dqku1uwKSIW6bDZqs-QQ-64" style="edgeStyle=orthogonalEdgeStyle;rounded=0;orthogonalLoop=1;jettySize=auto;html=1;exitX=0.5;exitY=1;exitDx=0;exitDy=0;entryX=0.5;entryY=0;entryDx=0;entryDy=0;" parent="1" source="sZ0HXl8LnSBLZn5xtde6-72" target="Dqku1uwKSIW6bDZqs-QQ-63" edge="1">
                    <mxGeometry relative="1" as="geometry"/>
                </mxCell>
                <mxCell id="sZ0HXl8LnSBLZn5xtde6-72" value="добавить рекомендации, дообследования и текущие назначения" style="rounded=1;whiteSpace=wrap;html=1;" parent="1" vertex="1">
                    <mxGeometry x="595.94" y="692.5" width="124.06" height="57.5" as="geometry"/>
                </mxCell>
                <mxCell id="sZ0HXl8LnSBLZn5xtde6-76" style="edgeStyle=orthogonalEdgeStyle;rounded=0;orthogonalLoop=1;jettySize=auto;html=1;exitX=0.5;exitY=1;exitDx=0;exitDy=0;entryX=0.5;entryY=0;entryDx=0;entryDy=0;" parent="1" source="sZ0HXl8LnSBLZn5xtde6-74" target="sZ0HXl8LnSBLZn5xtde6-53" edge="1">
                    <mxGeometry relative="1" as="geometry"/>
                </mxCell>
                <mxCell id="Dqku1uwKSIW6bDZqs-QQ-46" style="edgeStyle=orthogonalEdgeStyle;rounded=0;orthogonalLoop=1;jettySize=auto;html=1;exitX=0;exitY=0.5;exitDx=0;exitDy=0;entryX=0.997;entryY=0.107;entryDx=0;entryDy=0;entryPerimeter=0;" parent="1" source="sZ0HXl8LnSBLZn5xtde6-74" target="Dqku1uwKSIW6bDZqs-QQ-42" edge="1">
                    <mxGeometry relative="1" as="geometry"/>
                </mxCell>
                <mxCell id="sZ0HXl8LnSBLZn5xtde6-74" value="добавить промежуточный/конечный результат" style="rounded=1;whiteSpace=wrap;html=1;" parent="1" vertex="1">
                    <mxGeometry x="320" y="770" width="120" height="53" as="geometry"/>
                </mxCell>
                <mxCell id="sZ0HXl8LnSBLZn5xtde6-77" value="добавить карту пациента в архив" style="rounded=1;whiteSpace=wrap;html=1;" parent="1" vertex="1">
                    <mxGeometry x="312.51" y="1030" width="127.49" height="50" as="geometry"/>
                </mxCell>
                <mxCell id="sZ0HXl8LnSBLZn5xtde6-81" style="edgeStyle=orthogonalEdgeStyle;rounded=0;orthogonalLoop=1;jettySize=auto;html=1;exitX=0;exitY=0.5;exitDx=0;exitDy=0;entryX=1;entryY=0.5;entryDx=0;entryDy=0;" parent="1" source="sZ0HXl8LnSBLZn5xtde6-79" target="sZ0HXl8LnSBLZn5xtde6-12" edge="1">
                    <mxGeometry relative="1" as="geometry"/>
                </mxCell>
                <mxCell id="sZ0HXl8LnSBLZn5xtde6-82" style="edgeStyle=orthogonalEdgeStyle;rounded=0;orthogonalLoop=1;jettySize=auto;html=1;exitX=0;exitY=0.5;exitDx=0;exitDy=0;entryX=1;entryY=0.5;entryDx=0;entryDy=0;" parent="1" source="sZ0HXl8LnSBLZn5xtde6-79" target="sZ0HXl8LnSBLZn5xtde6-14" edge="1">
                    <mxGeometry relative="1" as="geometry"/>
                </mxCell>
                <mxCell id="sZ0HXl8LnSBLZn5xtde6-83" style="edgeStyle=orthogonalEdgeStyle;rounded=0;orthogonalLoop=1;jettySize=auto;html=1;exitX=0;exitY=0.5;exitDx=0;exitDy=0;entryX=1;entryY=0.5;entryDx=0;entryDy=0;" parent="1" source="sZ0HXl8LnSBLZn5xtde6-79" target="sZ0HXl8LnSBLZn5xtde6-13" edge="1">
                    <mxGeometry relative="1" as="geometry"/>
                </mxCell>
                <mxCell id="sZ0HXl8LnSBLZn5xtde6-84" style="edgeStyle=orthogonalEdgeStyle;rounded=0;orthogonalLoop=1;jettySize=auto;html=1;exitX=0;exitY=0.5;exitDx=0;exitDy=0;entryX=1;entryY=0.5;entryDx=0;entryDy=0;" parent="1" source="sZ0HXl8LnSBLZn5xtde6-79" target="sZ0HXl8LnSBLZn5xtde6-43" edge="1">
                    <mxGeometry relative="1" as="geometry"/>
                </mxCell>
                <mxCell id="sZ0HXl8LnSBLZn5xtde6-79" value="пациент найден/не найден" style="rounded=1;whiteSpace=wrap;html=1;" parent="1" vertex="1">
                    <mxGeometry x="-142.5" y="365" width="115" height="50" as="geometry"/>
                </mxCell>
                <mxCell id="sZ0HXl8LnSBLZn5xtde6-85" value="сохранить карту пациента в текущие&amp;nbsp;" style="rounded=1;whiteSpace=wrap;html=1;" parent="1" vertex="1">
                    <mxGeometry x="599.38" y="960" width="120" height="60" as="geometry"/>
                </mxCell>
                <mxCell id="sZ0HXl8LnSBLZn5xtde6-87" value="БД Пациенты" style="shape=hexagon;perimeter=hexagonPerimeter2;whiteSpace=wrap;html=1;fixedSize=1;" parent="1" vertex="1">
                    <mxGeometry x="1436" y="3.75" width="120" height="40" as="geometry"/>
                </mxCell>
                <mxCell id="Dqku1uwKSIW6bDZqs-QQ-2" value="Регистрационные данные" style="swimlane;fontStyle=0;childLayout=stackLayout;horizontal=1;startSize=30;horizontalStack=0;resizeParent=1;resizeParentMax=0;resizeLast=0;collapsible=1;marginBottom=0;whiteSpace=wrap;html=1;" parent="1" vertex="1">
                    <mxGeometry x="750" y="85" width="250" height="180" as="geometry">
                        <mxRectangle x="780" y="100" width="180" height="30" as="alternateBounds"/>
                    </mxGeometry>
                </mxCell>
                <mxCell id="Dqku1uwKSIW6bDZqs-QQ-3" value="ФИО&lt;br&gt;возраст&lt;br&gt;пол" style="text;strokeColor=none;fillColor=none;align=left;verticalAlign=middle;spacingLeft=4;spacingRight=4;overflow=hidden;points=[[0,0.5],[1,0.5]];portConstraint=eastwest;rotatable=0;whiteSpace=wrap;html=1;" parent="Dqku1uwKSIW6bDZqs-QQ-2" vertex="1">
                    <mxGeometry y="30" width="250" height="60" as="geometry"/>
                </mxCell>
                <mxCell id="Dqku1uwKSIW6bDZqs-QQ-4" value="номер телефона" style="text;strokeColor=none;fillColor=none;align=left;verticalAlign=middle;spacingLeft=4;spacingRight=4;overflow=hidden;points=[[0,0.5],[1,0.5]];portConstraint=eastwest;rotatable=0;whiteSpace=wrap;html=1;" parent="Dqku1uwKSIW6bDZqs-QQ-2" vertex="1">
                    <mxGeometry y="90" width="250" height="30" as="geometry"/>
                </mxCell>
                <mxCell id="Dqku1uwKSIW6bDZqs-QQ-5" value="адрес проживания&lt;br&gt;электронный адрес&lt;br&gt;&lt;br&gt;дата начала терапии" style="text;strokeColor=none;fillColor=none;align=left;verticalAlign=middle;spacingLeft=4;spacingRight=4;overflow=hidden;points=[[0,0.5],[1,0.5]];portConstraint=eastwest;rotatable=0;whiteSpace=wrap;html=1;" parent="Dqku1uwKSIW6bDZqs-QQ-2" vertex="1">
                    <mxGeometry y="120" width="250" height="60" as="geometry"/>
                </mxCell>
                <mxCell id="Dqku1uwKSIW6bDZqs-QQ-7" value="Антропометрия и состав тела" style="swimlane;fontStyle=0;childLayout=stackLayout;horizontal=1;startSize=30;horizontalStack=0;resizeParent=1;resizeParentMax=0;resizeLast=0;collapsible=1;marginBottom=0;whiteSpace=wrap;html=1;" parent="1" vertex="1">
                    <mxGeometry x="1070" y="90" width="390" height="150" as="geometry">
                        <mxRectangle x="780" y="245" width="210" height="30" as="alternateBounds"/>
                    </mxGeometry>
                </mxCell>
                <mxCell id="Dqku1uwKSIW6bDZqs-QQ-8" value="вес&lt;br&gt;рост&lt;br&gt;колебания веса с 16-летнего возраста&lt;br&gt;измерения (таблица) =&amp;gt; дата, вес, ОГ, ОТ, ОБ, цели, дополнения&lt;br&gt;? жировая масса (формула) =&amp;gt; процент жира в организме&lt;br&gt;? мышечная масса (формула) =&amp;gt; процент мышечной массы" style="text;strokeColor=none;fillColor=none;align=left;verticalAlign=middle;spacingLeft=4;spacingRight=4;overflow=hidden;points=[[0,0.5],[1,0.5]];portConstraint=eastwest;rotatable=0;whiteSpace=wrap;html=1;" parent="Dqku1uwKSIW6bDZqs-QQ-7" vertex="1">
                    <mxGeometry y="30" width="390" height="120" as="geometry"/>
                </mxCell>
                <mxCell id="Dqku1uwKSIW6bDZqs-QQ-17" value="Медистория и наследственные заболевания" style="swimlane;fontStyle=0;childLayout=stackLayout;horizontal=1;startSize=30;horizontalStack=0;resizeParent=1;resizeParentMax=0;resizeLast=0;collapsible=1;marginBottom=0;whiteSpace=wrap;html=1;" parent="1" vertex="1">
                    <mxGeometry x="1050" y="250" width="520" height="250" as="geometry">
                        <mxRectangle x="1240" y="310" width="290" height="30" as="alternateBounds"/>
                    </mxGeometry>
                </mxCell>
                <mxCell id="Dqku1uwKSIW6bDZqs-QQ-18" value="история родов&lt;br&gt;история наследственных заболеваний&lt;br&gt;вирусные, грибковые заболевания&lt;br&gt;лекарственные, медицинские препараты, схема приёма&lt;br&gt;БАДы и витамины, схема приёма&lt;br&gt;КОК&lt;br&gt;последний приём антибиотиков&lt;br&gt;наличие аллергических реакций на лекарства, пищевые или бытовые продукты&amp;nbsp;&lt;br&gt;работа ЖКТ (запоры, диарея, тяжесть, вздутие, газы)&lt;br&gt;кожные покровы (высыпания, акне, паппиломы, красные точки, пятна, шелушения)&lt;br&gt;состояния волос, ногтей&lt;br&gt;&lt;br&gt;симптомы (файл с опросом) =&amp;gt; таблица: 1.симптомы, 2.ответ (да/нет), 3.гипотеза" style="text;strokeColor=none;fillColor=none;align=left;verticalAlign=middle;spacingLeft=4;spacingRight=4;overflow=hidden;points=[[0,0.5],[1,0.5]];portConstraint=eastwest;rotatable=0;whiteSpace=wrap;html=1;" parent="Dqku1uwKSIW6bDZqs-QQ-17" vertex="1">
                    <mxGeometry y="30" width="520" height="220" as="geometry"/>
                </mxCell>
                <mxCell id="Dqku1uwKSIW6bDZqs-QQ-22" value="Стиль жизни и физ нагрузка" style="swimlane;fontStyle=0;childLayout=stackLayout;horizontal=1;startSize=30;horizontalStack=0;resizeParent=1;resizeParentMax=0;resizeLast=0;collapsible=1;marginBottom=0;whiteSpace=wrap;html=1;" parent="1" vertex="1">
                    <mxGeometry x="1200" y="510" width="520" height="180" as="geometry">
                        <mxRectangle x="1450" y="492.5" width="200" height="30" as="alternateBounds"/>
                    </mxGeometry>
                </mxCell>
                <mxCell id="Dqku1uwKSIW6bDZqs-QQ-23" value="образ жизни&lt;br&gt;семейное положение&lt;br&gt;физическая нагрузка (какая, сколько раз в неделю)&lt;br&gt;режим сна =&amp;gt; обычное время пробуждения, обычное время ухода ко сну, дневной сон&lt;br&gt;качество сна&lt;br&gt;употребляемые жидкости в сутки&lt;br&gt;вредные привычки =&amp;gt; сигареты, алкоголь, другое&lt;br&gt;пищевое поведение =&amp;gt; любимая еда, нелюбимая еда, средний размер порции&lt;br&gt;" style="text;strokeColor=none;fillColor=none;align=left;verticalAlign=middle;spacingLeft=4;spacingRight=4;overflow=hidden;points=[[0,0.5],[1,0.5]];portConstraint=eastwest;rotatable=0;whiteSpace=wrap;html=1;" parent="Dqku1uwKSIW6bDZqs-QQ-22" vertex="1">
                    <mxGeometry y="30" width="520" height="150" as="geometry"/>
                </mxCell>
                <mxCell id="Dqku1uwKSIW6bDZqs-QQ-27" value="Анализы и другие исследования" style="swimlane;fontStyle=0;childLayout=stackLayout;horizontal=1;startSize=30;horizontalStack=0;resizeParent=1;resizeParentMax=0;resizeLast=0;collapsible=1;marginBottom=0;whiteSpace=wrap;html=1;" parent="1" vertex="1">
                    <mxGeometry x="1431" y="713" width="310" height="210" as="geometry">
                        <mxRectangle x="1190" y="670" width="220" height="30" as="alternateBounds"/>
                    </mxGeometry>
                </mxCell>
                <mxCell id="Dqku1uwKSIW6bDZqs-QQ-28" value="когда последний раз сдавали анализы&lt;br&gt;результаты/назначения врача&lt;br&gt;общие анализы =&amp;gt; кровь, моча, кал&lt;br&gt;анализ на гормоны&lt;br&gt;УЗИ&lt;br&gt;&lt;br&gt;ЗАГРУЗИТЬ ФАЙЛ (расширение doc, pdf, jpeg)&lt;br&gt;&lt;br&gt;Анализы (табл) =&amp;gt; 1.показатели, 2.оптимум, 3. значение, 4.замечания." style="text;strokeColor=none;fillColor=none;align=left;verticalAlign=middle;spacingLeft=4;spacingRight=4;overflow=hidden;points=[[0,0.5],[1,0.5]];portConstraint=eastwest;rotatable=0;whiteSpace=wrap;html=1;" parent="Dqku1uwKSIW6bDZqs-QQ-27" vertex="1">
                    <mxGeometry y="30" width="310" height="180" as="geometry"/>
                </mxCell>
                <mxCell id="Dqku1uwKSIW6bDZqs-QQ-32" value="Дополнения и цели" style="swimlane;fontStyle=0;childLayout=stackLayout;horizontal=1;startSize=30;horizontalStack=0;resizeParent=1;resizeParentMax=0;resizeLast=0;collapsible=1;marginBottom=0;whiteSpace=wrap;html=1;" parent="1" vertex="1">
                    <mxGeometry x="1200" y="757" width="180" height="100" as="geometry">
                        <mxRectangle x="1604" y="870" width="150" height="30" as="alternateBounds"/>
                    </mxGeometry>
                </mxCell>
                <mxCell id="Dqku1uwKSIW6bDZqs-QQ-33" value="дополнения&lt;br&gt;цели =&amp;gt; общие, конкретные" style="text;strokeColor=none;fillColor=none;align=left;verticalAlign=middle;spacingLeft=4;spacingRight=4;overflow=hidden;points=[[0,0.5],[1,0.5]];portConstraint=eastwest;rotatable=0;whiteSpace=wrap;html=1;" parent="Dqku1uwKSIW6bDZqs-QQ-32" vertex="1">
                    <mxGeometry y="30" width="180" height="70" as="geometry"/>
                </mxCell>
                <mxCell id="Dqku1uwKSIW6bDZqs-QQ-37" value="Рекомендации и текущие назначения" style="swimlane;fontStyle=0;childLayout=stackLayout;horizontal=1;startSize=30;horizontalStack=0;resizeParent=1;resizeParentMax=0;resizeLast=0;collapsible=1;marginBottom=0;whiteSpace=wrap;html=1;" parent="1" vertex="1">
                    <mxGeometry x="780" y="692.5" width="350" height="190" as="geometry">
                        <mxRectangle x="780" y="692.5" width="250" height="30" as="alternateBounds"/>
                    </mxGeometry>
                </mxCell>
                <mxCell id="Dqku1uwKSIW6bDZqs-QQ-38" value="рекомендации&lt;br&gt;&lt;br&gt;дообследования&lt;br&gt;&lt;br&gt;Текущие назначения (табл) =&amp;gt; 1.препарат, 2.где купить, 3.схема приёма, 4.длительность приёма, 5.примечания&lt;br&gt;&lt;br&gt;СОХРАНИТЬ В ФАЙЛ (расширение pdf)" style="text;strokeColor=none;fillColor=none;align=left;verticalAlign=middle;spacingLeft=4;spacingRight=4;overflow=hidden;points=[[0,0.5],[1,0.5]];portConstraint=eastwest;rotatable=0;whiteSpace=wrap;html=1;" parent="Dqku1uwKSIW6bDZqs-QQ-37" vertex="1">
                    <mxGeometry y="30" width="350" height="160" as="geometry"/>
                </mxCell>
                <mxCell id="Dqku1uwKSIW6bDZqs-QQ-42" value="Промежуточный/конечный результат" style="swimlane;fontStyle=0;childLayout=stackLayout;horizontal=1;startSize=30;horizontalStack=0;resizeParent=1;resizeParentMax=0;resizeLast=0;collapsible=1;marginBottom=0;whiteSpace=wrap;html=1;" parent="1" vertex="1">
                    <mxGeometry x="-80" y="760" width="340" height="180" as="geometry"/>
                </mxCell>
                <mxCell id="Dqku1uwKSIW6bDZqs-QQ-43" value="история промежуточных результатов (дата, результат)&lt;br&gt;добавить промежуточный результат&lt;br&gt;&lt;br&gt;дата окончания терапии&lt;br&gt;конечный результат&lt;br&gt;выполнение поставленной цели дополнительные комментарии&lt;br&gt;&lt;br&gt;СОХРАНИТЬ ВСЮ ИСТОРИЮ В ФАЙЛ (расширение pdf)" style="text;strokeColor=none;fillColor=none;align=left;verticalAlign=middle;spacingLeft=4;spacingRight=4;overflow=hidden;points=[[0,0.5],[1,0.5]];portConstraint=eastwest;rotatable=0;whiteSpace=wrap;html=1;" parent="Dqku1uwKSIW6bDZqs-QQ-42" vertex="1">
                    <mxGeometry y="30" width="340" height="150" as="geometry"/>
                </mxCell>
                <mxCell id="Dqku1uwKSIW6bDZqs-QQ-49" style="edgeStyle=orthogonalEdgeStyle;rounded=0;orthogonalLoop=1;jettySize=auto;html=1;exitX=0.5;exitY=1;exitDx=0;exitDy=0;entryX=0.5;entryY=0;entryDx=0;entryDy=0;" parent="1" source="Dqku1uwKSIW6bDZqs-QQ-47" target="sZ0HXl8LnSBLZn5xtde6-62" edge="1">
                    <mxGeometry relative="1" as="geometry"/>
                </mxCell>
                <mxCell id="Dqku1uwKSIW6bDZqs-QQ-78" style="edgeStyle=orthogonalEdgeStyle;rounded=0;orthogonalLoop=1;jettySize=auto;html=1;exitX=0;exitY=0.5;exitDx=0;exitDy=0;entryX=0.5;entryY=1;entryDx=0;entryDy=0;" parent="1" source="Dqku1uwKSIW6bDZqs-QQ-47" target="Dqku1uwKSIW6bDZqs-QQ-50" edge="1">
                    <mxGeometry relative="1" as="geometry"/>
                </mxCell>
                <mxCell id="Dqku1uwKSIW6bDZqs-QQ-47" value="добавить краткий &lt;br&gt;анамнез" style="rounded=1;whiteSpace=wrap;html=1;" parent="1" vertex="1">
                    <mxGeometry x="592.1899999999999" y="212.5" width="122.19" height="25" as="geometry"/>
                </mxCell>
                <mxCell id="Dqku1uwKSIW6bDZqs-QQ-50" value="Краткий анамнез" style="swimlane;fontStyle=0;childLayout=stackLayout;horizontal=1;startSize=30;horizontalStack=0;resizeParent=1;resizeParentMax=0;resizeLast=0;collapsible=1;marginBottom=0;whiteSpace=wrap;html=1;" parent="1" vertex="1" collapsed="1">
                    <mxGeometry x="470" y="148.75" width="130" height="30" as="geometry">
                        <mxRectangle x="470" y="148.75" width="120" height="60" as="alternateBounds"/>
                    </mxGeometry>
                </mxCell>
                <mxCell id="Dqku1uwKSIW6bDZqs-QQ-51" value="краткий анамнез" style="text;strokeColor=none;fillColor=none;align=left;verticalAlign=middle;spacingLeft=4;spacingRight=4;overflow=hidden;points=[[0,0.5],[1,0.5]];portConstraint=eastwest;rotatable=0;whiteSpace=wrap;html=1;" parent="Dqku1uwKSIW6bDZqs-QQ-50" vertex="1">
                    <mxGeometry y="30" width="120" height="30" as="geometry"/>
                </mxCell>
                <mxCell id="Dqku1uwKSIW6bDZqs-QQ-58" style="edgeStyle=orthogonalEdgeStyle;rounded=0;orthogonalLoop=1;jettySize=auto;html=1;exitX=0.5;exitY=1;exitDx=0;exitDy=0;entryX=0.5;entryY=0;entryDx=0;entryDy=0;" parent="1" source="Dqku1uwKSIW6bDZqs-QQ-56" target="sZ0HXl8LnSBLZn5xtde6-39" edge="1">
                    <mxGeometry relative="1" as="geometry"/>
                </mxCell>
                <mxCell id="Dqku1uwKSIW6bDZqs-QQ-56" value="изменить краткий &lt;br&gt;анамнез" style="rounded=1;whiteSpace=wrap;html=1;" parent="1" vertex="1">
                    <mxGeometry x="321.57" y="212.5" width="122.19" height="25" as="geometry"/>
                </mxCell>
                <mxCell id="Dqku1uwKSIW6bDZqs-QQ-73" style="edgeStyle=orthogonalEdgeStyle;rounded=0;orthogonalLoop=1;jettySize=auto;html=1;exitX=0.5;exitY=1;exitDx=0;exitDy=0;entryX=0.5;entryY=0;entryDx=0;entryDy=0;" parent="1" source="Dqku1uwKSIW6bDZqs-QQ-59" target="Dqku1uwKSIW6bDZqs-QQ-72" edge="1">
                    <mxGeometry relative="1" as="geometry">
                        <mxPoint x="1225" y="350" as="targetPoint"/>
                    </mxGeometry>
                </mxCell>
                <mxCell id="Dqku1uwKSIW6bDZqs-QQ-59" value="Вывод:&lt;br&gt;дата,&lt;br&gt;ФИО,&lt;br&gt;тема встречи,&lt;br&gt;важно сделать на встрече,&lt;br&gt;важно подготовить к встрече,&lt;br&gt;комментарии" style="rounded=1;whiteSpace=wrap;html=1;" parent="1" vertex="1">
                    <mxGeometry x="1590" y="183.75" width="190" height="135" as="geometry"/>
                </mxCell>
                <mxCell id="Dqku1uwKSIW6bDZqs-QQ-60" value="Рекомендации и текущие назначения" style="swimlane;fontStyle=0;childLayout=stackLayout;horizontal=1;startSize=30;horizontalStack=0;resizeParent=1;resizeParentMax=0;resizeLast=0;collapsible=1;marginBottom=0;whiteSpace=wrap;html=1;" parent="1" vertex="1">
                    <mxGeometry x="-120" y="522.5" width="380" height="220" as="geometry">
                        <mxRectangle x="780" y="692.5" width="250" height="30" as="alternateBounds"/>
                    </mxGeometry>
                </mxCell>
                <mxCell id="Dqku1uwKSIW6bDZqs-QQ-61" value="история рекомендаций (дата, рекомендации)&lt;br&gt;добавить текущие рекомендации&lt;br&gt;&lt;br&gt;история дообследований (дата, дообследования)&lt;br&gt;добавить текущие дообследования&lt;br&gt;&lt;br&gt;история назначений (дата, назначения)&lt;br&gt;Текущие назначения (табл) =&amp;gt; 1.препарат, 2.где купить, 3.схема приёма, 4.длительность приёма, 5.примечания&lt;br&gt;&lt;br&gt;СОХРАНИТЬ ВСЮ ИСТОРИЮ В ФАЙЛ (расширение pdf)&lt;br&gt;СОХРАНИТЬ ПОСЛЕДНИЕ ДАННЫЕ В ФАЙЛ (расширение pdf)" style="text;strokeColor=none;fillColor=none;align=left;verticalAlign=middle;spacingLeft=4;spacingRight=4;overflow=hidden;points=[[0,0.5],[1,0.5]];portConstraint=eastwest;rotatable=0;whiteSpace=wrap;html=1;" parent="Dqku1uwKSIW6bDZqs-QQ-60" vertex="1">
                    <mxGeometry y="30" width="380" height="190" as="geometry"/>
                </mxCell>
                <mxCell id="Dqku1uwKSIW6bDZqs-QQ-70" style="edgeStyle=orthogonalEdgeStyle;rounded=0;orthogonalLoop=1;jettySize=auto;html=1;exitX=1;exitY=0.5;exitDx=0;exitDy=0;entryX=-0.001;entryY=0.084;entryDx=0;entryDy=0;entryPerimeter=0;" parent="1" source="Dqku1uwKSIW6bDZqs-QQ-63" target="Dqku1uwKSIW6bDZqs-QQ-66" edge="1">
                    <mxGeometry relative="1" as="geometry"/>
                </mxCell>
                <mxCell id="Dqku1uwKSIW6bDZqs-QQ-80" style="edgeStyle=orthogonalEdgeStyle;rounded=0;orthogonalLoop=1;jettySize=auto;html=1;exitX=0.5;exitY=1;exitDx=0;exitDy=0;entryX=0.5;entryY=0;entryDx=0;entryDy=0;" parent="1" source="Dqku1uwKSIW6bDZqs-QQ-63" target="Dqku1uwKSIW6bDZqs-QQ-79" edge="1">
                    <mxGeometry relative="1" as="geometry"/>
                </mxCell>
                <mxCell id="Dqku1uwKSIW6bDZqs-QQ-63" value="Добавить дату следующей встречи" style="rounded=1;whiteSpace=wrap;html=1;" parent="1" vertex="1">
                    <mxGeometry x="599.38" y="787" width="120" height="40" as="geometry"/>
                </mxCell>
                <mxCell id="Dqku1uwKSIW6bDZqs-QQ-66" value="Следующая встреча" style="swimlane;fontStyle=0;childLayout=stackLayout;horizontal=1;startSize=30;horizontalStack=0;resizeParent=1;resizeParentMax=0;resizeLast=0;collapsible=1;marginBottom=0;whiteSpace=wrap;html=1;" parent="1" vertex="1">
                    <mxGeometry x="780" y="920" width="350" height="160" as="geometry"/>
                </mxCell>
                <mxCell id="Dqku1uwKSIW6bDZqs-QQ-67" value="история встреч с пациентом (дата, тема, комментарии)&lt;br&gt;&lt;br&gt;добавить дата следующей встречи&lt;br&gt;добавить тему следующей встречи&lt;br&gt;добавить то, что важно сделать на следующей встрече&lt;br&gt;добавить то, что важно подготовить к следующей встрече" style="text;strokeColor=none;fillColor=none;align=left;verticalAlign=middle;spacingLeft=4;spacingRight=4;overflow=hidden;points=[[0,0.5],[1,0.5]];portConstraint=eastwest;rotatable=0;whiteSpace=wrap;html=1;" parent="Dqku1uwKSIW6bDZqs-QQ-66" vertex="1">
                    <mxGeometry y="30" width="350" height="130" as="geometry"/>
                </mxCell>
                <mxCell id="Dqku1uwKSIW6bDZqs-QQ-72" value="СОХРАНИТЬ РАСПИСАНИЕ В ФАЙЛ (расширение pdf)" style="rounded=1;whiteSpace=wrap;html=1;" parent="1" vertex="1">
                    <mxGeometry x="1610" y="360" width="150" height="47.5" as="geometry"/>
                </mxCell>
                <mxCell id="Dqku1uwKSIW6bDZqs-QQ-81" style="edgeStyle=orthogonalEdgeStyle;rounded=0;orthogonalLoop=1;jettySize=auto;html=1;exitX=0.5;exitY=1;exitDx=0;exitDy=0;entryX=0.5;entryY=0;entryDx=0;entryDy=0;" parent="1" source="Dqku1uwKSIW6bDZqs-QQ-79" target="sZ0HXl8LnSBLZn5xtde6-85" edge="1">
                    <mxGeometry relative="1" as="geometry"/>
                </mxCell>
                <mxCell id="Dqku1uwKSIW6bDZqs-QQ-79" value="СОХРАНИТЬ КАРТУ ПАЦИЕНТА В ФАЙЛ (расширение pdf)&amp;nbsp;" style="rounded=1;whiteSpace=wrap;html=1;" parent="1" vertex="1">
                    <mxGeometry x="595.4" y="860" width="127.97" height="67" as="geometry"/>
                </mxCell>
                <mxCell id="Dqku1uwKSIW6bDZqs-QQ-84" style="edgeStyle=orthogonalEdgeStyle;rounded=0;orthogonalLoop=1;jettySize=auto;html=1;exitX=0.5;exitY=1;exitDx=0;exitDy=0;entryX=0.5;entryY=0;entryDx=0;entryDy=0;" parent="1" source="Dqku1uwKSIW6bDZqs-QQ-82" target="sZ0HXl8LnSBLZn5xtde6-77" edge="1">
                    <mxGeometry relative="1" as="geometry"/>
                </mxCell>
                <mxCell id="Dqku1uwKSIW6bDZqs-QQ-82" value="СОХРАНИТЬ КАРТУ ПАЦИЕНТА В ФАЙЛ (расширение pdf)&amp;nbsp;" style="rounded=1;whiteSpace=wrap;html=1;" parent="1" vertex="1">
                    <mxGeometry x="316.25" y="940" width="127.97" height="67" as="geometry"/>
                </mxCell>
            </root>
        </mxGraphModel>
    </diagram>
</mxfile>